<svg width="195" height="165" viewBox="0 0 195 165" fill="none" xmlns="http://www.w3.org/2000/svg">
<mask id="mask0_57_1137" style="mask-type:luminance" maskUnits="userSpaceOnUse" x="5" y="55" width="190" height="38">
<path d="M5.89111 55.9653H194.408V92.3861H5.89111V55.9653Z" fill="white"/>
</mask>
<g mask="url(#mask0_57_1137)">
<path d="M141.189 91.7266C124.896 88.9459 110.353 79.9749 95.5405 73.1633C83.2826 66.8579 70.4878 61.4117 56.55 61.4807C40.4145 62.0637 24.724 69.9991 14.0847 81.9962C12.0596 83.7336 9.98079 89.4637 6.90866 87.9794C3.20368 83.561 16.4779 70.958 20.0257 68.2924C53.194 43.8533 79.405 62.7004 110.276 78.7054C123.297 84.9494 136.786 92.2252 151.664 90.9518C164.006 90.1809 176.429 83.6186 183.229 73.1825C184.69 70.9311 186.082 68.6222 187.306 66.2328C188.058 63.9546 190.056 61.707 192.587 63.1453C195.153 64.6564 193.964 67.6941 192.484 69.4238C183.367 84.1172 166.422 92.3786 149.393 92.3786C146.651 92.3786 143.908 92.1638 141.189 91.7266Z" fill="#EEBA2B"/>
</g>
<path d="M7.502 96.1159C6.53932 94.5127 5.46542 92.1577 4.28028 89.0588C3.09132 85.9521 2.07878 82.3967 1.24266 78.3964C0.414221 74.3884 0 70.2961 0 66.1232C0 59.9175 0.816936 53.6582 2.45464 47.3452C4.08852 41.0244 6.44344 35.0489 9.51174 29.4109C12.5877 23.7767 16.2774 18.7486 20.573 14.3302C24.8686 9.90417 29.6897 6.41014 35.04 3.85194C40.3866 1.28607 46.1358 0.0012207 52.2839 0.0012207H65.1708C63.8898 1.28224 63.0421 3.20376 62.6241 5.76963C62.2022 8.33934 62.0104 11.2235 62.0411 14.4223C62.0718 17.6248 62.0871 20.8273 62.0871 24.026V88.5218C62.0871 89.5458 62.0565 90.6504 61.9951 91.8356C61.9337 93.0245 61.6614 94.0371 61.182 94.8732C60.6987 95.7016 59.8511 96.1159 58.6353 96.1159C54.5928 96.1159 50.6807 95.1417 46.899 93.1856C43.125 91.2334 39.5236 88.5602 36.0986 85.162C32.6698 81.7677 29.4941 77.9592 26.5715 73.7326C23.6566 69.4983 21.0793 65.0608 18.8394 60.4161C16.5995 55.7638 14.7739 51.2112 13.3625 46.7622C11.951 42.3131 11.019 38.1978 10.5703 34.4123C9.09752 38.0635 7.93924 41.8644 7.10312 45.811C6.27468 49.7499 5.86046 53.8001 5.86046 57.9615C5.86046 66.1654 6.69274 73.6022 8.36113 80.2681C10.0257 86.9263 12.7833 92.0503 16.6302 95.6403V96.1159H7.502ZM52.1919 2.40984C45.3994 2.40984 38.9751 4.23548 32.9229 7.88676C26.8668 11.538 21.6622 16.3783 17.3052 22.3998C16.0856 28.6822 15.7634 34.7037 16.3387 40.4722C16.9217 46.2329 18.172 51.6101 20.0974 56.6114C22.0189 61.6128 24.3853 66.1347 27.2005 70.1733C30.0234 74.2043 33.0341 77.66 36.2367 80.5442C39.4354 83.4284 42.6226 85.6453 45.7944 87.1871C48.974 88.7212 51.8774 89.4883 54.5084 89.4883C55.0185 89.4883 55.2908 89.1508 55.3215 88.4758C55.3522 87.8007 55.3676 87.2101 55.3676 86.6962V2.40984H52.1919Z" fill="#EEBA2B"/>
<path d="M87.969 120.416H75.0821C76.3593 119.139 77.2069 117.221 77.6288 114.663C78.0469 112.097 78.2425 109.213 78.2118 106.01C78.1811 102.8 78.1658 99.5939 78.1658 96.3913V34.1968C78.1658 34.0741 78.2272 33.9168 78.3499 33.7212C78.4803 33.5294 78.7066 33.4297 79.0249 33.4297C79.278 33.4297 79.5043 33.5141 79.6999 33.6752C79.8917 33.8401 80.0221 33.982 80.0835 34.1047C80.398 34.5573 80.747 35.263 81.1267 36.2219C81.5141 37.1846 81.8823 38.1319 82.2313 39.0601C82.588 39.9921 82.8641 40.7131 83.0597 41.2232C86.1357 48.9784 89.5492 56.5877 93.2925 64.0514C97.0435 71.5074 101.274 78.668 105.98 85.5295C110.694 92.3834 115.983 98.7232 121.843 104.553C127.704 110.383 134.289 115.515 141.603 119.941V120.416H127.274C120.677 113.689 114.717 106.432 109.401 98.6465C104.081 90.8645 99.4023 82.9215 95.3636 74.8211C91.3211 66.7132 87.8309 58.8429 84.8854 51.2105V96.3913C84.8854 99.5939 84.87 102.8 84.8393 106.01C84.8087 109.213 84.9966 112.097 85.407 114.663C85.825 117.221 86.6803 119.139 87.969 120.416ZM122.656 24.3015C128.935 24.3015 133.549 25.5212 136.494 27.9528C139.447 30.3883 140.928 33.6253 140.928 37.664C140.928 41.7678 140.138 45.6109 138.565 49.2008C137.001 52.783 134.903 56.0355 132.275 58.958C129.644 61.8729 126.68 64.4196 123.377 66.5981C120.083 68.7766 116.704 70.5562 113.237 71.9369C109.777 73.31 106.448 74.2497 103.249 74.7598L102.666 74.0848C109.006 71.9791 114.498 69.0834 119.143 65.4014C123.795 61.7118 127.37 57.5121 129.867 52.8061C132.371 48.0924 133.625 43.1716 133.625 38.0475C133.625 34.7146 132.582 31.9953 130.496 29.8858C128.409 27.7687 125.379 26.7101 121.414 26.7101H101.132C91.8428 26.7101 84.7013 27.2586 79.6999 28.3517C74.6986 29.4371 71.2046 30.5877 69.2217 31.8035V24.3015H122.656Z" fill="#EEBA2B"/>
<mask id="mask1_57_1137" style="mask-type:luminance" maskUnits="userSpaceOnUse" x="14" y="125" width="116" height="25">
<path d="M129.769 125.922H14.8921V149.487H129.769V125.922Z" fill="white"/>
</mask>
<g mask="url(#mask1_57_1137)">
<path d="M17.5815 143.889V143.613C17.8884 143.513 18.1799 143.318 18.456 143.03C18.7398 142.735 19.0467 142.182 19.3765 141.373L23.5801 130.941C23.7105 130.603 23.7028 130.274 23.5494 129.944L23.35 129.499L24.9608 128.762L30.2076 141.389C30.5336 142.186 30.8289 142.735 31.0974 143.03C31.3621 143.318 31.6075 143.513 31.8338 143.613V143.889H28.52V143.613C28.8461 143.513 28.9803 143.318 28.9189 143.03C28.8652 142.735 28.6735 142.186 28.3359 141.389L27.0319 138.259H21.0027L19.7447 141.373C19.2001 142.723 19.2883 143.471 20.0055 143.613V143.889H17.5815ZM21.1254 137.937H26.8938L23.979 130.91L21.1254 137.937Z" fill="#EEBA2B"/>
<path d="M33.3647 143.888V143.612C33.6908 143.512 33.917 143.297 34.0398 142.967C34.1625 142.641 34.2239 142.043 34.2239 141.172V131.645C34.2239 130.767 34.1625 130.169 34.0398 129.85C33.917 129.524 33.6908 129.313 33.3647 129.221V128.945H36.8166V129.221C36.4867 129.313 36.2643 129.524 36.1416 129.85C36.0265 130.169 35.9728 130.767 35.9728 131.645V141.172C35.9728 142.043 36.0265 142.641 36.1416 142.967C36.2643 143.297 36.4867 143.512 36.8166 143.612V143.888H33.3647Z" fill="#EEBA2B"/>
<path d="M44.6441 144.104C43.5165 144.104 42.5039 143.939 41.6064 143.613C40.7051 143.287 40.0109 142.946 39.52 142.585L39.4126 139.624L39.6427 139.578C39.9265 140.315 40.3024 141.001 40.7627 141.634C41.2229 142.271 41.8097 142.777 42.5269 143.153C43.2403 143.533 44.0918 143.721 45.0736 143.721C45.6336 143.721 46.1552 143.605 46.6385 143.368C47.1294 143.134 47.5168 142.8 47.8044 142.37C48.0997 141.941 48.2493 141.446 48.2493 140.882C48.2493 140.342 48.1036 139.87 47.8198 139.471C47.5321 139.072 47.1601 138.727 46.6998 138.428C46.2472 138.121 45.7678 137.86 45.2577 137.645C44.7553 137.423 44.2797 137.216 43.831 137.032C42.991 136.694 42.2585 136.353 41.6371 136.004C41.0235 135.659 40.5479 135.237 40.2104 134.746C39.8728 134.255 39.7041 133.633 39.7041 132.874C39.7041 132.038 39.9189 131.317 40.3484 130.711C40.7857 130.097 41.3955 129.629 42.1741 129.299C42.9603 128.962 43.877 128.793 44.9202 128.793C45.879 128.793 46.7075 128.901 47.4055 129.115C48.1112 129.33 48.6674 129.553 49.0778 129.775L49.1698 132.245L48.955 132.322C48.5561 131.394 47.9732 130.63 47.2061 130.036C46.4467 129.434 45.4572 129.131 44.2298 129.131C43.666 129.131 43.1406 129.246 42.6497 129.468C42.1587 129.683 41.7637 130.001 41.4684 130.419C41.1692 130.83 41.0235 131.34 41.0235 131.954C41.0235 132.456 41.1462 132.889 41.3917 133.258C41.6371 133.626 41.9593 133.948 42.3582 134.224C42.757 134.493 43.1904 134.727 43.6622 134.93C44.1301 135.137 44.5904 135.329 45.0429 135.513C45.8407 135.831 46.5848 136.169 47.2828 136.525C47.9885 136.886 48.5561 137.319 48.9857 137.829C49.4153 138.343 49.6301 139.003 49.6301 139.808C49.6301 140.691 49.3884 141.458 48.909 142.11C48.4257 142.754 47.8044 143.253 47.0373 143.598C46.2779 143.935 45.4802 144.104 44.6441 144.104Z" fill="#EEBA2B"/>
<path d="M52.0469 143.888V143.612C52.3729 143.513 52.5992 143.298 52.7219 142.968C52.8446 142.642 52.906 142.044 52.906 141.173V131.646C52.906 130.768 52.8446 130.169 52.7219 129.851C52.5992 129.525 52.3729 129.314 52.0469 129.222V128.946H55.4987V129.222C55.1689 129.314 54.9464 129.525 54.8237 129.851C54.7086 130.169 54.6549 130.768 54.6549 131.646V135.788H62.7859V131.646C62.7859 130.768 62.7246 130.169 62.6018 129.851C62.4868 129.525 62.2643 129.314 61.9268 129.222V128.946H65.394V129.222C65.0642 129.314 64.8417 129.525 64.719 129.851C64.5962 130.169 64.5349 130.768 64.5349 131.646V141.173C64.5349 142.044 64.5962 142.642 64.719 142.968C64.8417 143.298 65.0642 143.513 65.394 143.612V143.888H61.9268V143.612C62.2643 143.513 62.4868 143.298 62.6018 142.968C62.7246 142.642 62.7859 142.044 62.7859 141.173V136.141H54.6549V141.173C54.6549 142.044 54.7086 142.642 54.8237 142.968C54.9464 143.298 55.1689 143.513 55.4987 143.612V143.888H52.0469Z" fill="#EEBA2B"/>
<path d="M66.7349 143.889V143.613C67.0417 143.513 67.3332 143.318 67.6093 143.03C67.8931 142.735 68.2 142.182 68.5298 141.373L72.7334 130.941C72.8638 130.603 72.8561 130.274 72.7027 129.944L72.5033 129.499L74.1141 128.762L79.3609 141.389C79.6869 142.186 79.9823 142.735 80.2507 143.03C80.5154 143.318 80.7608 143.513 80.9871 143.613V143.889H77.6734V143.613C77.9994 143.513 78.1336 143.318 78.0722 143.03C78.0186 142.735 77.8268 142.186 77.4893 141.389L76.1852 138.259H70.156L68.898 141.373C68.3534 142.723 68.4416 143.471 69.1588 143.613V143.889H66.7349ZM70.2788 137.937H76.0472L73.1323 130.91L70.2788 137.937Z" fill="#EEBA2B"/>
<path d="M98.5168 144.041C97.9722 144.041 97.5426 143.907 97.2281 143.642C96.9098 143.378 96.6336 142.994 96.3997 142.492C96.1619 141.982 95.8934 141.356 95.5866 140.62C95.2682 139.884 95.0036 139.239 94.7888 138.687C94.574 138.127 94.3439 137.659 94.0984 137.291C93.853 136.923 93.5346 136.647 93.1473 136.462C92.7676 136.271 92.2574 136.171 91.6131 136.171H90.2477V141.172C90.2477 142.043 90.3014 142.641 90.4165 142.967C90.5392 143.297 90.7616 143.512 91.0915 143.612V143.888H87.6396V143.612C87.9657 143.512 88.1919 143.297 88.3147 142.967C88.4374 142.641 88.4988 142.043 88.4988 141.172V131.645C88.4988 130.767 88.4374 130.169 88.3147 129.85C88.1919 129.524 87.9657 129.313 87.6396 129.221V128.945H91.8432C93.293 128.945 94.4244 129.095 95.2337 129.39C96.0506 129.678 96.6221 130.073 96.952 130.571C97.2895 131.062 97.4582 131.63 97.4582 132.274C97.4582 133.268 97.0977 134.115 96.3843 134.821C95.6786 135.527 94.6277 135.956 93.2393 136.11C93.8913 136.202 94.4244 136.351 94.8348 136.554C95.2414 136.762 95.5789 137.038 95.8474 137.383C96.1235 137.732 96.369 138.158 96.5838 138.656C96.7985 139.159 97.0325 139.738 97.2895 140.39C97.6346 141.241 97.9261 141.901 98.1639 142.369C98.3979 142.841 98.6127 143.174 98.8083 143.366C99 143.562 99.2225 143.658 99.468 143.658C99.537 143.658 99.5984 143.658 99.6521 143.658C99.7019 143.658 99.7518 143.65 99.8055 143.627V143.888C99.6521 143.949 99.4449 143.987 99.1918 144.01C98.9463 144.03 98.7201 144.041 98.5168 144.041ZM90.2477 135.864H92.0427C93.2585 135.864 94.1636 135.58 94.7581 135.005C95.3488 134.422 95.6479 133.678 95.6479 132.765C95.6479 132.121 95.4983 131.538 95.203 131.016C94.9154 130.487 94.4436 130.061 93.7916 129.743C93.1473 129.417 92.2958 129.252 91.2449 129.252C91.0915 129.252 90.9266 129.26 90.754 129.267C90.5891 129.279 90.4203 129.29 90.2477 129.298V135.864Z" fill="#EEBA2B"/>
<path d="M99.8901 143.889V143.613C100.197 143.513 100.488 143.318 100.765 143.03C101.048 142.735 101.355 142.182 101.685 141.373L105.889 130.941C106.019 130.603 106.011 130.274 105.858 129.944L105.659 129.499L107.269 128.762L112.516 141.389C112.842 142.186 113.138 142.735 113.406 143.03C113.671 143.318 113.916 143.513 114.142 143.613V143.889H110.829V143.613C111.155 143.513 111.289 143.318 111.228 143.03C111.174 142.735 110.982 142.186 110.645 141.389L109.341 138.259H103.311L102.053 141.373C101.509 142.723 101.597 143.471 102.314 143.613V143.889H99.8901ZM103.434 137.937H109.202L106.288 130.91L103.434 137.937Z" fill="#EEBA2B"/>
<path d="M118.618 143.888V143.612C118.944 143.512 119.171 143.297 119.293 142.967C119.416 142.641 119.466 142.043 119.447 141.172V137.168L116.225 131.308C115.815 130.552 115.45 130.042 115.136 129.774C114.829 129.497 114.561 129.313 114.323 129.221V128.945H117.698V129.221C117.391 129.313 117.284 129.497 117.376 129.774C117.475 130.042 117.744 130.552 118.173 131.308L121.134 136.6L124.126 131.308C124.494 130.656 124.678 130.165 124.678 129.835C124.678 129.497 124.471 129.294 124.065 129.221V128.945H126.611V129.221C126.324 129.313 126.005 129.497 125.66 129.774C125.323 130.042 124.939 130.552 124.51 131.308L121.242 137.122V141.172C121.242 142.043 121.303 142.641 121.426 142.967C121.549 143.297 121.771 143.512 122.101 143.612V143.888H118.618Z" fill="#EEBA2B"/>
</g>
<mask id="mask2_57_1137" style="mask-type:luminance" maskUnits="userSpaceOnUse" x="33" y="155" width="81" height="10">
<path d="M113.061 155.134H33.5303V164.953H113.061V155.134Z" fill="white"/>
</mask>
<g mask="url(#mask2_57_1137)">
<path d="M36.9025 157.327C37.5355 157.327 38.0303 157.481 38.3909 157.787C38.7592 158.087 38.9433 158.501 38.9433 159.03C38.9433 159.564 38.7592 159.982 38.3909 160.289C38.0303 160.588 37.5355 160.734 36.9025 160.734H35.5676V162.299H35.0459V157.327H36.9025ZM36.8872 160.273C37.3782 160.273 37.7503 160.166 38.0073 159.951C38.272 159.729 38.4063 159.422 38.4063 159.03C38.4063 158.631 38.272 158.325 38.0073 158.11C37.7503 157.895 37.3782 157.787 36.8872 157.787H35.5676V160.273H36.8872Z" fill="#EEBA2B"/>
<path d="M45.8151 160.963H43.0378L42.4547 162.298H41.9023L44.1733 157.327H44.695L46.9659 162.298H46.4135L45.8151 160.963ZM45.631 160.549L44.4341 157.879L43.2373 160.549H45.631Z" fill="#EEBA2B"/>
<path d="M51.7124 162.345C51.3441 162.345 50.9912 162.291 50.6536 162.176C50.3161 162.054 50.0552 161.896 49.8711 161.701L50.0706 161.286C50.2547 161.47 50.4925 161.62 50.7917 161.731C51.0871 161.846 51.394 161.9 51.7124 161.9C52.1612 161.9 52.495 161.82 52.7098 161.655C52.9323 161.493 53.0473 161.279 53.0473 161.01C53.0473 160.818 52.986 160.665 52.8632 160.55C52.7481 160.427 52.6024 160.335 52.4182 160.274C52.2418 160.205 52.0039 160.132 51.6971 160.059C51.3173 159.959 51.0142 159.867 50.7917 159.783C50.5769 159.691 50.3851 159.56 50.224 159.384C50.0706 159.2 49.9938 158.954 49.9938 158.647C49.9938 158.394 50.0591 158.164 50.1933 157.957C50.3237 157.753 50.5232 157.588 50.7917 157.466C51.0679 157.343 51.4094 157.281 51.8198 157.281C52.1037 157.281 52.3799 157.324 52.6484 157.404C52.9246 157.477 53.1624 157.585 53.3696 157.726L53.1854 158.141C52.9783 158.01 52.7558 157.907 52.5103 157.834C52.2725 157.765 52.0423 157.726 51.8198 157.726C51.3787 157.726 51.0449 157.815 50.8224 157.987C50.6076 158.152 50.5002 158.367 50.5002 158.632C50.5002 158.839 50.5616 159 50.6843 159.123C50.8071 159.238 50.9605 159.33 51.1447 159.399C51.3288 159.46 51.5743 159.529 51.8812 159.598C52.2379 159.691 52.5295 159.783 52.7558 159.875C52.9783 159.959 53.1701 160.089 53.3235 160.274C53.4847 160.45 53.569 160.684 53.569 160.979C53.569 161.236 53.5 161.467 53.3696 161.67C53.2353 161.877 53.0243 162.038 52.7405 162.161C52.4643 162.284 52.119 162.345 51.7124 162.345Z" fill="#EEBA2B"/>
<path d="M58.2365 157.787H56.4873V157.327H60.5075V157.787H58.7582V162.298H58.2365V157.787Z" fill="#EEBA2B"/>
<path d="M67.2915 162.298L66.156 160.702C66.0332 160.713 65.899 160.717 65.757 160.717H64.4221V162.298H63.9004V157.326H65.757C66.39 157.326 66.8848 157.48 67.2454 157.786C67.6137 158.086 67.7978 158.5 67.7978 159.029C67.7978 159.421 67.6942 159.747 67.4909 160.011C67.2953 160.28 67.0153 160.472 66.647 160.594L67.8745 162.298H67.2915ZM65.7417 160.272C66.2327 160.272 66.6048 160.165 66.8618 159.95C67.1265 159.728 67.2608 159.421 67.2608 159.029C67.2608 158.63 67.1265 158.324 66.8618 158.109C66.6048 157.894 66.2327 157.786 65.7417 157.786H64.4221V160.272H65.7417Z" fill="#EEBA2B"/>
<path d="M73.2923 160.58V162.298H72.7706V160.58L70.7759 157.327H71.3436L73.0468 160.12L74.75 157.327H75.2871L73.2923 160.58Z" fill="#EEBA2B"/>
<path d="M85.2335 162.344C84.731 162.344 84.2822 162.237 83.8832 162.022C83.4919 161.8 83.1851 161.497 82.9626 161.117C82.7362 160.729 82.625 160.296 82.625 159.813C82.625 159.333 82.7362 158.903 82.9626 158.524C83.1851 158.136 83.4996 157.833 83.8986 157.618C84.2975 157.396 84.7425 157.281 85.2335 157.281C85.6018 157.281 85.9393 157.342 86.2462 157.465C86.5608 157.588 86.8331 157.768 87.0595 158.002L86.7219 158.34C86.3306 157.952 85.8396 157.756 85.2489 157.756C84.8499 157.756 84.4893 157.848 84.1748 158.033C83.8564 158.209 83.607 158.455 83.4229 158.769C83.2388 159.076 83.1467 159.425 83.1467 159.813C83.1467 160.204 83.2388 160.557 83.4229 160.871C83.607 161.178 83.8564 161.424 84.1748 161.608C84.4893 161.784 84.8499 161.869 85.2489 161.869C85.8396 161.869 86.3306 161.669 86.7219 161.27L87.0595 161.608C86.8331 161.846 86.5608 162.03 86.2462 162.16C85.9393 162.283 85.6018 162.344 85.2335 162.344Z" fill="#EEBA2B"/>
<path d="M94.8878 157.326V162.298H94.3661V159.996H91.2512V162.298H90.7295V157.326H91.2512V159.536H94.3661V157.326H94.8878Z" fill="#EEBA2B"/>
<path d="M102.571 161.838V162.298H99.0576V157.327H102.464V157.787H99.5793V159.552H102.157V159.997H99.5793V161.838H102.571Z" fill="#EEBA2B"/>
<path d="M106.888 157.786V159.735H109.466V160.18H106.888V162.298H106.366V157.326H109.773V157.786H106.888Z" fill="#EEBA2B"/>
</g>
</svg>
