<svg width="130" height="87" viewBox="0 0 130 87" fill="none" xmlns="http://www.w3.org/2000/svg">
<mask id="mask0_57_945" style="mask-type:luminance" maskUnits="userSpaceOnUse" x="0" y="0" width="130" height="79">
<path d="M129.603 0H0.00341797V78.7653H129.603V0Z" fill="white"/>
</mask>
<g mask="url(#mask0_57_945)">
<path d="M20.8428 60.0504V59.1274C21.2106 58.7941 21.4659 58.0762 21.6043 56.9737C21.7428 55.884 21.812 53.8841 21.812 50.974V19.1294C21.812 16.1937 21.7428 14.1938 21.6043 13.1297C21.4659 12.04 21.2106 11.335 20.8428 11.0273V10.1042H24.737V11.0273C24.3649 11.335 24.1139 12.04 23.9755 13.1297C23.8457 14.1938 23.7851 16.1937 23.7851 19.1294V50.974C23.7851 53.8841 23.8457 55.884 23.9755 56.9737C24.1139 58.0762 24.3649 58.7941 24.737 59.1274V60.0504H20.8428Z" fill="black"/>
<path d="M33.5675 60.7682C32.2953 60.7682 31.153 60.217 30.1405 59.1273C29.1237 58.0376 28.3405 56.8966 27.7867 55.6915L27.6655 45.7946L27.9251 45.6408C28.2453 48.1022 28.6694 50.3969 29.1886 52.5122C29.7078 54.6403 30.3699 56.3325 31.179 57.5889C31.9838 58.858 32.9444 59.4862 34.0521 59.4862C34.6838 59.4862 35.2723 59.1016 35.8175 58.3068C36.3713 57.5248 36.8083 56.4095 37.1328 54.9736C37.466 53.5378 37.6348 51.884 37.6348 49.9995C37.6348 48.1919 37.4703 46.6151 37.1501 45.2818C36.8256 43.9485 36.4059 42.7948 35.8867 41.7948C35.3761 40.7692 34.8352 39.8975 34.2598 39.1796C33.6929 38.436 33.1564 37.7437 32.6501 37.1284C31.7025 36.0002 30.8761 34.8593 30.1751 33.6927C29.4828 32.5389 28.9463 31.1287 28.5655 29.4877C28.1848 27.8468 27.9944 25.77 27.9944 23.2316C27.9944 20.4369 28.2367 18.0268 28.7213 16.0012C29.2146 13.9501 29.9025 12.386 30.7809 11.2835C31.6679 10.1554 32.7021 9.59131 33.879 9.59131C34.9607 9.59131 35.8953 9.95026 36.6828 10.6682C37.479 11.3861 38.1064 12.1296 38.5694 12.8732L38.6732 21.1292L38.4309 21.3856C37.9809 18.2832 37.3232 15.732 36.4578 13.7449C35.6011 11.7322 34.4848 10.7195 33.1001 10.7195C32.4641 10.7195 31.8713 11.1041 31.3175 11.8476C30.7636 12.5655 30.3179 13.6296 29.9848 15.0269C29.6473 16.3987 29.4828 18.1037 29.4828 20.1549C29.4828 21.8343 29.6213 23.2829 29.8982 24.5136C30.1751 25.7443 30.5386 26.8212 30.9886 27.7442C31.4386 28.6416 31.9275 29.4236 32.4598 30.1031C32.9876 30.7954 33.5069 31.4364 34.0175 32.0517C34.9175 33.1158 35.7569 34.2439 36.5444 35.4362C37.3405 36.6412 37.9809 38.0899 38.4655 39.7949C38.9501 41.5128 39.1925 43.7178 39.1925 46.41C39.1925 49.3585 38.9199 51.9225 38.379 54.1019C37.8338 56.2556 37.1328 57.9222 36.2675 59.076C35.4107 60.2041 34.5107 60.7682 33.5675 60.7682Z" fill="black"/>
<path d="M41.9209 60.0504V59.1274C42.2887 58.7941 42.544 58.0762 42.6824 56.9737C42.8209 55.884 42.8901 53.8841 42.8901 50.974V19.1294C42.8901 16.1937 42.8209 14.1938 42.6824 13.1297C42.544 12.04 42.2887 11.335 41.9209 11.0273V10.1042H45.8151V11.0273C45.443 11.335 45.1921 12.04 45.0536 13.1297C44.9238 14.1938 44.8632 16.1937 44.8632 19.1294V32.9749H54.0363V19.1294C54.0363 16.1937 53.9671 14.1938 53.8286 13.1297C53.6988 12.04 53.4478 11.335 53.0671 11.0273V10.1042H56.9786V11.0273C56.6065 11.335 56.3555 12.04 56.2171 13.1297C56.0786 14.1938 56.0094 16.1937 56.0094 19.1294V50.974C56.0094 53.8841 56.0786 55.884 56.2171 56.9737C56.3555 58.0762 56.6065 58.7941 56.9786 59.1274V60.0504H53.0671V59.1274C53.4478 58.7941 53.6988 58.0762 53.8286 56.9737C53.9671 55.884 54.0363 53.8841 54.0363 50.974V34.1543H44.8632V50.974C44.8632 53.8841 44.9238 55.884 45.0536 56.9737C45.1921 58.0762 45.443 58.7941 45.8151 59.1274V60.0504H41.9209Z" fill="black"/>
<path d="M58.4873 60.0503V59.1273C58.8335 58.794 59.1623 58.1402 59.4738 57.1787C59.794 56.1915 60.1402 54.3455 60.5123 51.6405L65.2546 16.7705C65.4017 15.6423 65.3931 14.5398 65.22 13.4373L64.995 11.9502L66.8123 9.48877L72.7315 51.6918C73.0993 54.3583 73.4325 56.1915 73.7354 57.1787C74.0339 58.1402 74.3109 58.794 74.5662 59.1273V60.0503H70.8277V59.1273C71.1955 58.794 71.3469 58.1402 71.2777 57.1787C71.2171 56.1915 71.0008 54.3583 70.62 51.6918L69.1488 41.2308H62.3469L60.9277 51.6405C60.3133 56.1531 60.4128 58.653 61.2219 59.1273V60.0503H58.4873ZM62.4854 40.1539H68.9931L65.7046 16.6679L62.4854 40.1539Z" fill="black"/>
<path d="M95.8975 60.0503V59.1273C96.2436 58.794 96.5725 58.1402 96.884 57.1787C97.2042 56.1915 97.5503 54.3455 97.9225 51.6405L102.665 16.7705C102.812 15.6423 102.803 14.5398 102.63 13.4373L102.405 11.9502L104.222 9.48877L110.142 51.6918C110.509 54.3583 110.843 56.1915 111.146 57.1787C111.444 58.1402 111.721 58.794 111.976 59.1273V60.0503H108.238V59.1273C108.606 58.794 108.757 58.1402 108.688 57.1787C108.627 56.1915 108.411 54.3583 108.03 51.6918L106.559 41.2308H99.7571L98.3378 51.6405C97.7234 56.1531 97.8229 58.653 98.6321 59.1273V60.0503H95.8975ZM99.8955 40.1539H106.403L103.115 16.6679L99.8955 40.1539Z" fill="black"/>
<path d="M117.026 60.0504V59.1274C117.394 58.7941 117.649 58.0762 117.788 56.9737C117.926 55.884 117.983 53.8841 117.961 50.974V37.59L114.326 18.0013C113.863 15.4758 113.452 13.7707 113.097 12.8733C112.751 11.9503 112.448 11.335 112.18 11.0273V10.1042H115.988V11.0273C115.642 11.335 115.521 11.9503 115.624 12.8733C115.737 13.7707 116.04 15.4758 116.524 18.0013L119.865 35.6927L123.24 18.0013C123.655 15.8219 123.863 14.181 123.863 13.0785C123.863 11.9503 123.629 11.2709 123.171 11.0273V10.1042H126.044V11.0273C125.719 11.335 125.36 11.9503 124.971 12.8733C124.59 13.7707 124.157 15.4758 123.672 18.0013L119.986 37.4362V50.974C119.986 53.8841 120.055 55.884 120.194 56.9737C120.332 58.0762 120.583 58.7941 120.955 59.1274V60.0504H117.026Z" fill="black"/>
</g>
<path d="M3.76931 65.4374C3.55874 64.3985 3.32385 62.8724 3.06463 60.8641C2.80457 58.8508 2.5831 56.5468 2.40022 53.9544C2.21902 51.357 2.12842 48.705 2.12842 46.0008C2.12842 41.9792 2.3071 37.9229 2.66531 33.8317C3.02269 29.7356 3.53777 25.8632 4.20889 22.2095C4.88169 18.5583 5.68871 15.2998 6.62828 12.4365C7.56785 9.56821 8.62234 7.30391 9.79261 5.64608C10.962 3.98328 12.2195 3.15063 13.5643 3.15063H16.383C16.1028 3.98079 15.9174 5.22603 15.826 6.88884C15.7337 8.55412 15.6918 10.4232 15.6985 12.4961C15.7052 14.5715 15.7085 16.6469 15.7085 18.7198V60.5161C15.7085 61.1797 15.7018 61.8956 15.6884 62.6636C15.675 63.4341 15.6154 64.0903 15.5106 64.6321C15.4049 65.169 15.2195 65.4374 14.9535 65.4374C14.0693 65.4374 13.2136 64.8061 12.3865 63.5385C11.561 62.2734 10.7733 60.541 10.0241 58.3388C9.27417 56.1391 8.57956 53.671 7.94032 50.932C7.30275 48.188 6.73901 45.3123 6.2491 42.3023C5.75918 39.2874 5.35986 36.3371 5.05115 33.4539C4.74243 30.5707 4.53858 27.9038 4.44043 25.4506C4.11829 27.8168 3.86494 30.2799 3.68206 32.8375C3.50086 35.3901 3.41026 38.0148 3.41026 40.7116C3.41026 46.0281 3.5923 50.8475 3.95722 55.1673C4.3213 59.4821 4.92447 62.8028 5.76589 65.1292V65.4374H3.76931ZM13.5442 4.71153C12.0585 4.71153 10.6533 5.89463 9.32954 8.26083C8.00491 10.627 6.86653 13.7637 5.91354 17.666C5.64677 21.7372 5.5763 25.6395 5.70213 29.3777C5.82965 33.1109 6.10313 36.5956 6.52426 39.8367C6.94454 43.0778 7.46215 46.0082 8.0779 48.6254C8.69533 51.2377 9.35387 53.4772 10.0543 55.3463C10.754 57.2154 11.4511 58.652 12.1449 59.6511C12.8403 60.6453 13.4754 61.1424 14.0509 61.1424C14.1624 61.1424 14.222 60.9237 14.2287 60.4863C14.2354 60.0488 14.2388 59.6661 14.2388 59.333V4.71153H13.5442Z" fill="black"/>
<path d="M83.0595 59.1362H80.7876C81.0127 58.4691 81.1622 57.4674 81.2366 56.1312C81.3103 54.7909 81.3447 53.2844 81.3393 51.6116C81.3339 49.9348 81.3312 48.26 81.3312 46.5872V14.1008C81.3312 14.0367 81.342 13.9545 81.3637 13.8524C81.3867 13.7522 81.4266 13.7001 81.4827 13.7001C81.5273 13.7001 81.5672 13.7442 81.6017 13.8283C81.6355 13.9145 81.6585 13.9886 81.6693 14.0527C81.7247 14.2891 81.7863 14.6577 81.8532 15.1586C81.9215 15.6614 81.9864 16.1562 82.048 16.641C82.1108 17.1279 82.1595 17.5045 82.194 17.7709C82.7363 21.8217 83.3381 25.7964 83.998 29.6949C84.6593 33.5894 85.4051 37.3297 86.2348 40.9137C87.0658 44.4937 87.9982 47.8052 89.0314 50.8503C90.0646 53.8954 91.2256 56.5759 92.515 58.8878V59.1362H89.9889C88.8258 55.6223 87.7751 51.832 86.8379 47.7652C85.9001 43.7004 85.0751 39.5514 84.3631 35.3203C83.6505 31.0852 83.0352 26.9743 82.5159 22.9877V46.5872C82.5159 48.26 82.5132 49.9348 82.5077 51.6116C82.5023 53.2844 82.5355 54.7909 82.6078 56.1312C82.6815 57.4674 82.8323 58.4691 83.0595 59.1362ZM89.1747 8.93213C90.2816 8.93213 91.0951 9.5692 91.6144 10.8393C92.135 12.1115 92.396 13.8023 92.396 15.9118C92.396 18.0554 92.2567 20.0628 91.9795 21.9379C91.7036 23.809 91.3337 25.5079 90.8706 27.0345C90.4067 28.557 89.884 29.8872 89.3019 31.0251C88.721 32.163 88.1253 33.0926 87.5141 33.8138C86.9042 34.531 86.3173 35.0218 85.7533 35.2883L85.6506 34.9357C86.7683 33.8358 87.7365 32.3233 88.5554 30.4001C89.3756 28.4729 90.0058 26.2792 90.4459 23.8211C90.8875 21.3589 91.1086 18.7886 91.1086 16.1122C91.1086 14.3712 90.9247 12.9509 90.5568 11.849C90.189 10.7432 89.6548 10.1902 88.9557 10.1902H85.3801C83.7424 10.1902 82.4834 10.4767 81.6017 11.0477C80.72 11.6146 80.104 12.2156 79.7544 12.8507V8.93213H89.1747Z" fill="black"/>
<mask id="mask1_57_945" style="mask-type:luminance" maskUnits="userSpaceOnUse" x="40" y="72" width="39" height="15">
<path d="M78.6925 72.8284H40.4106V86.8311H78.6925V72.8284Z" fill="white"/>
</mask>
<g mask="url(#mask1_57_945)">
<path d="M42.0347 75.959C42.3393 75.959 42.5774 76.1778 42.751 76.6154C42.9282 77.042 43.0168 77.6327 43.0168 78.3876C43.0168 79.1479 42.9282 79.7441 42.751 80.1817C42.5774 80.6083 42.3393 80.8162 42.0347 80.8162H41.3922V83.0479H41.1411V75.959H42.0347ZM42.0273 80.1598C42.2636 80.1598 42.4427 80.0066 42.5663 79.7003C42.6937 79.3831 42.7583 78.9455 42.7583 78.3876C42.7583 77.8187 42.6937 77.3811 42.5663 77.0748C42.4427 76.7685 42.2636 76.6154 42.0273 76.6154H41.3922V80.1598H42.0273Z" fill="black"/>
<path d="M46.324 81.1444H44.9874L44.7068 83.0479H44.4409L45.5338 75.959H45.7849L46.8778 83.0479H46.612L46.324 81.1444ZM46.2354 80.5536L45.6594 76.7466L45.0834 80.5536H46.2354Z" fill="black"/>
<path d="M49.162 83.1132C48.9848 83.1132 48.815 83.0366 48.6525 82.8725C48.49 82.6975 48.3645 82.4732 48.2759 82.1943L48.3719 81.6035C48.4605 81.8661 48.575 82.0794 48.719 82.238C48.8611 82.4021 49.0088 82.4787 49.162 82.4787C49.378 82.4787 49.5386 82.3639 49.642 82.1286C49.7491 81.8989 49.8045 81.5926 49.8045 81.2097C49.8045 80.9362 49.775 80.7174 49.7159 80.5533C49.6605 80.3783 49.5903 80.247 49.5017 80.1595C49.4168 80.0611 49.3023 79.9571 49.1546 79.8532C48.9719 79.711 48.826 79.5797 48.719 79.4594C48.6156 79.3281 48.5233 79.1421 48.4457 78.8905C48.3719 78.628 48.335 78.2779 48.335 77.8403C48.335 77.4793 48.3663 77.1511 48.431 76.8558C48.4937 76.5659 48.5897 76.3307 48.719 76.1556C48.8519 75.9806 49.0162 75.8931 49.2137 75.8931C49.3503 75.8931 49.4833 75.9532 49.6125 76.0681C49.7454 76.172 49.8599 76.3252 49.9596 76.5276L49.871 77.1183C49.7713 76.9323 49.6642 76.7846 49.546 76.6807C49.4316 76.5823 49.3208 76.5276 49.2137 76.5276C49.0014 76.5276 48.8408 76.6534 48.7337 76.8995C48.6303 77.1347 48.5786 77.441 48.5786 77.8184C48.5786 78.1138 48.6082 78.3435 48.6673 78.5186C48.7263 78.6827 48.8002 78.8139 48.8888 78.9124C48.9774 78.9999 49.0956 79.0984 49.2433 79.1968C49.415 79.3281 49.5553 79.4594 49.6642 79.5907C49.7713 79.711 49.8636 79.897 49.9374 80.1595C50.015 80.4111 50.0556 80.7448 50.0556 81.166C50.0556 81.5324 50.0223 81.8606 49.9596 82.1505C49.895 82.4459 49.7934 82.6756 49.6568 82.8507C49.5239 83.0257 49.3577 83.1132 49.162 83.1132Z" fill="black"/>
<path d="M52.3033 76.6154H51.4614V75.959H53.3962V76.6154H52.5543V83.0479H52.3033V76.6154Z" fill="black"/>
<path d="M56.6637 83.0479L56.1173 80.7724C56.0582 80.7888 55.9936 80.7943 55.9253 80.7943H55.2828V83.0479H55.0317V75.959H55.9253C56.2299 75.959 56.468 76.1778 56.6416 76.6154C56.8188 77.042 56.9074 77.6327 56.9074 78.3876C56.9074 78.9455 56.8576 79.4104 56.7597 79.7879C56.6656 80.1707 56.5308 80.4442 56.3536 80.6193L56.9444 83.0479H56.6637ZM55.9179 80.1598C56.1542 80.1598 56.3333 80.0066 56.457 79.7003C56.5844 79.3831 56.649 78.9455 56.649 78.3876C56.649 77.8187 56.5844 77.3811 56.457 77.0748C56.3333 76.7685 56.1542 76.6154 55.9179 76.6154H55.2828V80.1598H55.9179Z" fill="black"/>
<path d="M59.5514 80.5974V83.0479H59.3003V80.5974L58.3403 75.959H58.6136L59.4333 79.941L60.2529 75.959H60.5114L59.5514 80.5974Z" fill="black"/>
<path d="M65.2979 83.1132C65.056 83.1132 64.84 82.9601 64.648 82.6538C64.4597 82.3365 64.312 81.9044 64.2049 81.3629C64.096 80.8104 64.0425 80.1923 64.0425 79.5031C64.0425 78.8194 64.096 78.2068 64.2049 77.6653C64.312 77.1128 64.4634 76.6807 64.6554 76.3744C64.8474 76.0572 65.0616 75.8931 65.2979 75.8931C65.4751 75.8931 65.6376 75.9806 65.7852 76.1556C65.9366 76.3307 66.0677 76.5877 66.1766 76.9214L66.0142 77.4027C65.8259 76.8503 65.5896 76.5713 65.3052 76.5713C65.1132 76.5713 64.9397 76.7026 64.7883 76.9651C64.6351 77.2168 64.5151 77.5668 64.4265 78.0154C64.3379 78.4529 64.2936 78.9507 64.2936 79.5031C64.2936 80.0611 64.3379 80.5643 64.4265 81.0128C64.5151 81.4504 64.6351 81.8005 64.7883 82.063C64.9397 82.3146 65.1132 82.435 65.3052 82.435C65.5896 82.435 65.8259 82.1505 66.0142 81.5817L66.1766 82.063C66.0677 82.4021 65.9366 82.6647 65.7852 82.8507C65.6376 83.0257 65.4751 83.1132 65.2979 83.1132Z" fill="black"/>
<path d="M69.9461 75.959V83.0479H69.695V79.766H68.1959V83.0479H67.9448V75.959H68.1959V79.1096H69.695V75.959H69.9461Z" fill="black"/>
<path d="M73.6466 82.3915V83.0479H71.9556V75.959H73.595V76.6154H72.2066V79.1315H73.4473V79.766H72.2066V82.3915H73.6466Z" fill="black"/>
<path d="M75.7198 76.6154V79.394H76.9604V80.0285H75.7198V83.0479H75.4688V75.959H77.1081V76.6154H75.7198Z" fill="black"/>
</g>
<path d="M69.3349 60.8943C61.2963 58.6831 54.1207 51.5496 46.8126 46.1331C40.7647 41.1191 34.452 36.7884 27.5753 36.8433C19.6143 37.3068 11.8729 43.617 6.62362 53.1568C5.62448 54.5384 4.59885 59.0949 3.08311 57.9146C1.25513 54.4012 7.80443 44.3794 9.55482 42.2598C25.9195 22.8262 38.8516 37.8131 54.0828 50.5401C60.5072 55.5052 67.1625 61.2908 74.5028 60.2782C80.5922 59.6652 86.7214 54.4469 90.0765 46.1483C90.7975 44.3581 91.4844 42.5221 92.088 40.622C92.4589 38.8104 93.4448 37.0232 94.6937 38.1669C95.9597 39.3685 95.3731 41.784 94.6426 43.1595C90.1446 54.8434 81.7844 61.4127 73.3825 61.4127C72.0295 61.4127 70.6765 61.242 69.3349 60.8943Z" fill="black"/>
</svg>
